PathFileType	4	(X/Y/Z)	Patient4_TMGait_0pt5_02_right_29.trc.trc
DataRate	CameraRate	NumFrames	NumMarkers	Units	OrigDataRate	OrigDataStartFrame	OrigNumFrames
78.212290502793	78.212290502793	5	33	mm	78.212290502793	106	       141
Frame#	Time	Sacral			L.Shoulder			Chest			R.Shoulder			Neck			R.ASIS			L.ASIS			R.Thigh.Superior			R.Thigh.Lateral			R.Thigh.Inferior			R.Patella			L.Thigh.Superior			L.Thigh.Lateral			L.Thigh.Inferior			L.Patella			L.Shank.Superior			L.Shank.Lateral			L.Shank.Inferior			R.Shank.Superior			R.Shank.Lateral			R.Shank.Inferior			R.Heel			R.Midfoot.Superior			R.Midfoot.Lateral			R.Toe			L.Heel			L.Midfoot.Lateral			L.Midfoot.Superior			L.Toe			L.Elbow			L.Wrist			R.Elbow			R.Wrist			
		X1	Y1	Z1	X2	Y2	Z2	X3	Y3	Z3	X4	Y4	Z4	X5	Y5	Z5	X6	Y6	Z6	X7	Y7	Z7	X8	Y8	Z8	X9	Y9	Z9	X10	Y10	Z10	X11	Y11	Z11	X12	Y12	Z12	X13	Y13	Z13	X14	Y14	Z14	X15	Y15	Z15	X16	Y16	Z16	X17	Y17	Z17	X18	Y18	Z18	X19	Y19	Z19	X20	Y20	Z20	X21	Y21	Z21	X22	Y22	Z22	X23	Y23	Z23	X24	Y24	Z24	X25	Y25	Z25	X26	Y26	Z26	X27	Y27	Z27	X28	Y28	Z28	X29	Y29	Z29	X30	Y30	Z30	X31	Y31	Z31	X32	Y32	Z32	X33	Y33	Z33	

106	39.192500000000	685.575707130722	1015.303072614303	435.400630770656	885.571180826409	1441.786670153429	262.253910943756	979.606808803606	1364.581687263867	425.458936154853	891.966405150516	1439.040945983854	598.157619221631	881.540772524248	1499.204287101325	414.425585002467	907.459346619456	949.070179272525	558.872370324373	904.820595428458	963.134463023976	284.290066411912	994.329203827347	785.281106285418	531.610813878655	958.869111369148	664.985354687289	605.949733209859	1049.524208231194	628.075804513108	526.752136203329	1076.229324493777	519.998108433253	550.967177608698	944.380019600552	749.011663376453	319.484039992016	851.367227369679	636.501820802717	262.448126222750	930.560324972640	556.770093109023	328.476832652403	927.969447613043	486.176702408219	340.241318798873	898.823765506096	415.532786680922	333.604398000784	806.690650012952	302.779465964770	286.057387781258	852.808525653776	192.284284418210	360.181418269486	1012.570317850480	437.516232534514	557.766450858909	900.669094615244	375.068374689016	614.982705652182	909.371909501012	265.185791477864	567.714715825993	725.988108877109	170.848779370616	534.221939419553	898.919448086967	136.402980131360	580.878526857798	790.116656694309	122.059121404105	611.489352864872	977.402001509271	35.435095155402	613.582979284280	719.483434164405	38.685413170596	405.838506311219	792.705390155543	35.543834435896	324.418483969143	876.872061122531	95.968748102513	350.005350744746	1004.789188028407	41.480990847789	320.207624304334	855.791958708921	1103.244207381829	111.219260929611	1056.883744475218	938.686202873531	132.863055346230	847.100407213712	1091.548184854989	709.827881975575	943.515227464793	848.006852968414	708.808741065560	
107	39.205285714286	684.450143456135	1015.732475970753	434.456277475000	886.801891156518	1441.700161751458	262.166875705633	979.470384752673	1364.334323365161	426.084601228229	890.832252011097	1439.029145155476	598.247544156008	881.752042150514	1499.231218251665	414.363043117247	905.921542293015	949.407056579701	559.323305405116	904.984898508815	963.351075397010	284.318687433362	993.182605509584	786.756825947508	531.587956502498	958.869913126557	666.257124049834	606.182134901659	1049.028191496675	629.686673012047	526.515150981310	1077.590431286253	523.582813465776	551.006168238563	941.773624957037	748.123818390807	319.890778590571	847.743012513276	636.533904276280	262.294370865438	925.742587809569	556.039076258338	328.578944713864	922.230402094429	485.589065869348	340.418533735076	893.187785403988	415.251487687381	333.591280958190	800.884515373211	302.705448047618	285.941082964826	846.574213561728	192.127900234670	360.173295824299	1018.009100619358	439.326898437178	558.214438236227	910.380805024516	370.752580161332	616.229584874938	925.052145383266	261.511486918023	568.856420594358	747.397893399293	156.392325233544	536.610354693184	922.217511531649	132.505419019234	582.053497009249	814.844592595126	111.639019381467	613.488588396908	1006.907100912164	36.612923128322	614.243722276054	713.044191861281	38.651474929147	405.819909768653	786.259248591841	35.505668404950	324.398792655835	870.415436336042	95.928796193603	350.008211149801	998.350509981129	41.474569706199	320.202101799820	861.690506520147	1103.370539585266	110.098926042036	1067.661923830325	945.571879020658	133.203405030464	839.769663326403	1092.693567152527	710.131019654988	922.363792542750	843.915901134566	710.429351289030	
108	39.218071428571	683.433949210652	1016.048113535466	433.692890784620	887.928568927246	1441.470402171914	262.216812771013	979.342674009383	1363.987262410448	426.792333642411	889.801770883052	1438.927695114295	598.457769141068	881.961673474488	1499.144834074217	414.425877903947	904.497120571769	949.519752857338	559.862498872873	905.165687975807	963.472492132435	284.456864365890	991.693508310256	787.570149532480	531.753776397467	958.075001138950	666.955711104248	606.584069341689	1047.710804432468	630.491439021141	526.519834795305	1077.892448502207	526.585817742591	551.187304907359	939.250655000551	747.205993631240	320.318883256022	844.163413918734	636.529762718702	262.198366865817	920.965273149577	555.278514998018	328.704986560002	916.534341386376	484.996323926439	340.627246089320	887.595360494005	414.934188032199	333.618943232100	795.123521461281	302.611345626696	285.848055371095	840.357311942425	191.947526787101	360.192518326066	1022.695618935581	440.820889441486	558.845914215603	919.962892647994	366.135025697619	617.775982623715	940.856451259221	257.933577838656	570.247800176656	769.989884924848	141.881619316352	539.234753082163	946.012639967652	129.160841450106	583.517017595686	840.589363470454	101.600329276474	615.750458740547	1036.801330146075	38.961383794073	615.239912849417	706.618953437247	38.608459020139	405.806021621747	779.814972639078	35.466117075430	324.385933015348	863.958562575680	95.884415555397	350.029289360484	991.913490301542	41.472385537020	320.204287493050	867.555682309988	1103.383024787254	109.223272356061	1078.219169917120	952.530865826086	133.632462691309	832.222412057856	1093.915435782109	710.405036462742	901.706919868803	841.060234131178	711.684621247121	
109	39.230857142857	682.551683526462	1016.250856483266	433.117692046172	888.941080574762	1441.114885981836	262.408995408297	979.227764872734	1363.554052486804	427.579404148728	888.891340882044	1438.748722327438	598.787628276985	882.168712835786	1498.956185366287	414.620054250318	903.218747600879	949.412094286821	560.480407507771	905.322610805656	963.492800497294	284.714530317520	989.887456377966	787.687853865664	532.134594309486	956.465297578325	667.055764522091	607.180145134950	1045.602688795902	630.475580561104	526.810872272693	1077.144166315715	528.955246824787	551.512828612913	936.820067666972	746.262471613011	320.758685381419	840.616108956954	636.501074807721	262.158186455158	916.203493745963	554.492612706609	328.852815211474	910.865788761101	484.411070539680	340.854320883269	882.022933109473	414.591632291732	333.681072971692	789.387413824329	302.503375287641	285.772764445080	834.151920746800	191.750858644689	360.232743296796	1026.582160832468	442.008108593643	559.644852733729	929.321624634010	361.341699719698	619.575873070189	956.590097303305	254.609605230733	571.820737751418	793.538634965097	127.670226364606	541.976808414954	970.000961248965	126.556642477426	585.172674865982	867.053057351091	92.215183497482	618.149436620101	1066.667119012233	42.622332955363	616.446277661664	700.202788691587	38.560174176349	405.796160851912	773.371079637050	35.426447379051	324.378912985509	857.500592381859	95.836492141739	350.064763448827	985.476054957983	41.473733247330	320.213378708287	873.352379645749	1103.297237314231	108.609153723538	1088.502877564914	959.547689369379	134.148248950952	824.423665875380	1095.248827264741	710.642899954973	881.656768733663	839.325485712506	712.644482073094	
110	39.243642857143	681.828468268611	1016.337798292811	432.737212194784	889.830944889977	1440.654523891898	262.748042870922	979.126592048014	1363.052209492354	428.445447186654	888.107836725758	1438.507195585635	599.236410961149	882.366056400179	1498.678601505976	414.949857138662	902.120766256704	949.096832189973	561.171130347463	905.438005434418	963.416845544461	285.098581782526	987.806371800288	787.102740636254	532.752045565697	954.066836730399	666.557572442435	607.993228615778	1042.769145115785	629.656861070439	527.419930089193	1075.394509655728	530.657903670595	551.981871166433	934.486342103468	745.296589836800	321.212064116976	837.089752319330	636.461576558810	262.172980715117	911.430564988828	553.687692567489	329.024065224537	905.206241324888	483.846077527370	341.086944006802	876.443757509857	414.238903332789	333.770418035073	783.652317142117	302.390798085307	285.709036667232	827.950887524587	191.548425852953	360.285584106551	1029.641320414172	442.898136187580	560.591948703625	938.334445409756	356.493768216147	621.564472772944	972.019139881496	251.662889772057	573.500091023973	817.703965052238	114.089863236309	544.706585390366	993.814796769237	124.807826105535	586.917699962843	893.833330532820	83.698194751739	620.549396576021	1096.029423271619	47.613068860283	617.735572992935	693.790237409912	38.511704816425	405.789654930827	766.926208693099	35.388144952093	324.376438662003	851.041248074415	95.786415573149	350.109685708119	979.036298591055	41.477534115009	320.228631823730	879.042947090983	1103.131655230476	108.274102440369	1098.457926808227	966.603573135858	134.752877329064	816.370720837778	1096.731123667539	710.844256084765	862.309750998250	838.590833472307	713.373472470927	
